<?xml version="1.0" encoding="utf-8" ?>	<!-- Generator: Assembly 2.4 - http://assemblyapp.co -->	<svg version="1.1" xmlns="http://www.w3.org/2000/svg" xmlns:xlink="http://www.w3.org/1999/xlink" width="156.00" height="48.00" viewBox="0 0 156.0 48.0">		<g id="document" transform="scale(0.519873046875 0.519873046875) translate(150.0 46.23976543708985)">			<path d="M-124.293,8.68457 L-125.376,23.928 C-123.826,23.928 -123.154,23.2619 -122.349,22.4621 L-115.079,15.5146 L-100.016,26.5459 C-97.2536,28.0855 -95.3073,27.2748 -94.562,24.0044 L-84.6745,-22.3264 L-84.6718,-22.3291 C-83.7955,-26.4129 -86.1487,-28.0099 -88.8403,-27.008 L-146.958,-4.75714 C-150.925,-3.21751 -150.865,-1.00634 -147.633,-0.00449479 L-132.774,4.61712 L-98.2609,-16.9786 C-96.6367,-18.0542 -95.1598,-17.4591 -96.3746,-16.3835 L-124.293,8.68457 Z " fill="#039be5" fill-opacity="1.00" />			<path d="M-56.8632,-17.0554 L-56.8632,-13.0001 L-68.3339,-13.0001 L-68.3339,16.9859 L-73.0148,16.9859 L-73.0148,-13.0001 L-84.4855,-13.0001 L-84.4855,-17.0554 L-56.8632,-17.0554 Z M-52.2054,16.9859 L-27.0394,16.9859 L-27.0394,12.9306 L-47.7098,12.9306 L-47.7098,1.39039 L-28.9164,1.39039 L-28.9164,-2.54904 L-47.7098,-2.54904 L-47.7098,-12.8843 L-27.387,-12.8843 L-27.387,-17.0554 L-52.2054,-17.0554 L-52.2054,16.9859 Z M-20.9912,16.9859 L0.86106,16.9859 L0.86106,12.9306 L-16.3797,12.9306 L-16.3797,-17.0554 L-20.9912,-17.0554 L-20.9912,16.9859 Z M5.84328,16.9859 L31.0093,16.9859 L31.0093,12.9306 L10.3389,12.9306 L10.3389,1.39039 L29.1323,1.39039 L29.1323,-2.54904 L10.3389,-2.54904 L10.3389,-12.8843 L30.6617,-12.8843 L30.6617,-17.0554 L5.84328,-17.0554 L5.84328,16.9859 Z M51.7724,-17.936 C47.1069,-17.936 43.3065,-16.3293 40.3712,-13.116 C37.2815,-9.74816 35.7366,-5.21395 35.7366,0.486635 C35.7366,6.20267 37.3201,10.6983 40.4871,13.9734 C43.3914,16.5842 46.8597,17.8896 50.8918,17.8896 C54.0125,17.8896 56.5847,17.318 58.6085,16.1748 C59.8135,15.5105 61.1961,14.321 62.7564,12.6062 L63.8688,16.9859 L66.8349,16.9859 L66.8349,-1.22817 L51.8883,-1.22817 L51.8883,2.59539 L62.5479,2.59539 C62.5015,6.58116 61.4703,9.46622 59.4543,11.2505 C57.4382,13.0349 54.893,13.927 51.8187,13.927 C47.8021,13.927 44.9054,12.6564 43.1288,10.1151 C41.3522,7.57375 40.4639,4.2793 40.4639,0.231731 C40.4639,-4.44924 41.5415,-7.97155 43.6966,-10.3352 C45.8517,-12.6989 48.505,-13.8807 51.6565,-13.8807 C54.3137,-13.8807 56.5152,-13.313 58.2609,-12.1775 C60.0066,-11.042 61.1575,-9.23062 61.7137,-6.74338 L66.2788,-6.74338 C65.5218,-11.1926 63.4516,-14.3055 60.0684,-16.0821 C57.7356,-17.318 54.9703,-17.936 51.7724,-17.936 Z M88.664,-17.9823 C82.9171,-17.9823 78.576,-15.8813 75.6407,-11.6792 C73.3543,-8.40412 72.2111,-4.46469 72.2111,0.139039 C72.2111,5.23712 73.5474,9.45463 76.22,12.7916 C79.2171,16.2521 83.3342,17.9823 88.5713,17.9823 C94.1792,17.9823 98.4971,16.0049 101.525,12.05 C104.105,8.68219 105.395,4.45696 105.395,-0.625674 C105.395,-5.32209 104.267,-9.17655 102.012,-12.1891 C99.1228,-16.0512 94.6735,-17.9823 88.664,-17.9823 Z M89.1274,13.8575 C84.8481,13.8575 81.7545,12.5637 79.8466,9.97602 C77.9387,7.38836 76.9847,4.20978 76.9847,0.440289 C76.9847,-4.27158 78.097,-7.83637 80.3217,-10.2541 C82.5463,-12.6718 85.4197,-13.8807 88.9421,-13.8807 C92.5725,-13.8807 95.4344,-12.6602 97.5277,-10.2193 C99.621,-7.77844 100.668,-4.55738 100.668,-0.556155 C100.668,3.22879 99.76,6.5773 97.9448,9.48939 C96.1296,12.4015 93.1905,13.8575 89.1274,13.8575 Z M110.887,16.9859 L115.29,16.9859 L115.29,-10.5669 L132.739,16.9859 L137.907,16.9859 L137.907,-17.0554 L133.527,-17.0554 L133.527,10.5206 L116.333,-17.0554 L110.887,-17.0554 L110.887,16.9859 Z " fill="#039be5" fill-opacity="1.00" />		</g>	</svg>